<svg version="1.1" viewBox="0.0 0.0 462.76115485564304 210.82939632545933" fill="none" stroke="none" stroke-linecap="square" stroke-miterlimit="10" xmlns:xlink="http://www.w3.org/1999/xlink" xmlns="http://www.w3.org/2000/svg"><clipPath id="p.0"><path d="m0 0l462.76117 0l0 210.82939l-462.76117 0l0 -210.82939z" clip-rule="nonzero"/></clipPath><g clip-path="url(#p.0)"><path fill="#000000" fill-opacity="0.0" d="m0 0l462.76117 0l0 210.82939l-462.76117 0z" fill-rule="evenodd"/><path fill="#000000" fill-opacity="0.0" d="m22.540682 19.889763l413.70078 0l0 182.99213l-413.70078 0z" fill-rule="evenodd"/><path fill="#1155cc" d="m37.946934 139.86353q0 -9.21875 3.96875 -15.734383l1.140625 0q-0.125 1.015625 -0.125 2.046875q0 8.828133 6.328125 15.421883q6.34375 6.59375 17.359371 6.59375q8.5625 0 13.359375 -4.09375q4.8125 -4.109375 4.8125 -10.375q0 -3.71875 -2.375 -6.6562576q-2.359375 -2.9375 -7.859375 -6.53125l-22.281246 -14.71875q-12.421875 -8.3125 -12.421875 -20.484375q0 -1.28125 0.265625 -2.546875q0.765625 -10.125 7.859375 -16.265625q7.109375 -6.140625 19.015621 -6.140625q7.046875 0 17.40625 1.28125l8.0625 0l-1.65625 18.8125l-1.28125 0q0 -6.65625 -4.9375 -10.6875q-4.921875 -4.03125 -13.109375 -4.03125q-9.984371 0 -14.468746 6.140625q-2.296875 2.953125 -2.296875 5.890625q0 2.9375 1.140625 5.0q1.796875 3.328125 7.8125 7.15625l24.453121 15.875q11.515625 7.546875 11.515625 19.71875q0 13.562508 -9.28125 20.796883q-9.28125 7.234375 -24.640625 7.234375q-8.703121 0 -16.062496 -2.109375q-7.359375 -2.125 -10.8125 -5.703125q-0.890625 -2.4375 -0.890625 -5.890625zm128.76526 -64.89063l35.96875 0l0 1.28125l-2.1875 0q-2.9375 0 -4.921875 1.796875q-1.984375 1.78125 -2.109375 4.59375l0 55.937508q0 7.9375 1.015625 13.0625l0.265625 1.78125l-1.15625 0l-58.75 -51.828133l0 42.359383q0.125 2.828125 2.109375 4.6875q1.984375 1.84375 4.9375 1.84375l2.171875 0l0 1.28125l-35.84375 0l0 -1.28125l2.046875 0q2.953125 0 5.0 -1.84375q2.046875 -1.859375 2.046875 -4.6875l0 -56.312508q0 -7.6875 -1.03125 -12.671875l-0.25 -1.796875l1.140625 0.125l58.625 51.59375l0 -42.109375q0 -2.828125 -1.984375 -4.671875q-1.984375 -1.859375 -4.921875 -1.859375l-2.171875 0l0 -1.28125zm126.212036 1.28125l-1.796875 0q-2.4375 0 -4.109375 1.46875q-1.65625 1.46875 -1.78125 3.78125l0 42.359375q0 13.828133 -8.453125 21.703133q-8.4375 7.859375 -25.14064 7.859375q-16.703125 0 -25.984375 -7.671875q-9.28125 -7.6875 -9.28125 -21.625008l0 -42.5q0 -2.3125 -1.734375 -3.84375q-1.71875 -1.53125 -4.15625 -1.53125l-1.796875 0l0 -1.28125l33.671875 0l0 1.28125l-1.796875 0q-2.4375 0 -4.109375 1.53125q-1.65625 1.53125 -1.65625 3.84375l0 41.59375q0 11.781258 5.4375 18.437508q5.453125 6.65625 15.296875 6.65625q9.85939 0 15.54689 -6.265625q5.703125 -6.28125 5.703125 -17.421883l0 -43.0q-0.125 -2.4375 -1.796875 -3.90625q-1.65625 -1.46875 -4.09375 -1.46875l-1.65625 0l0 -1.28125l23.6875 0l0 1.28125zm77.30188 16.890625l0 -1.15625q0 -5.5 -3.078125 -8.703125q-3.0625 -3.203125 -8.5625 -3.328125l-14.859375 0l0 63.875008q0.140625 2.8125 2.1875 4.734375q2.046875 1.921875 4.859375 1.921875l1.40625 0l0 1.28125l-35.328125 0l0 -1.28125l1.28125 0q2.9375 0 4.984375 -1.921875q2.0625 -1.921875 2.0625 -4.859375l0 -63.750008l-14.71875 0q-5.640625 0.125 -8.71875 3.328125q-3.0625 3.203125 -3.0625 8.703125l0 1.15625l-1.28125 0l0 -20.21875q1.796875 0.640625 5.953125 1.28125q4.15625 0.640625 7.484375 0.640625l47.234375 0q5.625 0 9.265625 -0.828125q3.65625 -0.84375 4.171875 -1.09375l0 20.21875l-1.28125 0zm8.074005 57.343758l1.53125 0q3.0625 0 5.234375 -1.984375q2.1875 -1.984375 2.1875 -4.796875l0 -60.671883q0 -2.8125 -2.1875 -4.796875q-2.171875 -1.984375 -5.234375 -1.984375l-1.53125 0l0 -1.28125l36.34375 0l0 1.28125l-1.53125 0q-2.953125 0 -5.125 1.921875q-2.171875 1.90625 -2.296875 4.734375l0 60.796883q0.125 2.9375 2.296875 4.859375q2.171875 1.921875 5.125 1.921875l1.53125 0l0 1.28125l-36.34375 0l0 -1.28125z" fill-rule="nonzero"/></g></svg>